<svg xmlns="http://www.w3.org/2000/svg" viewBox="0 0 176.04 177.35"><path fill="currentColor" d="M175.87,105.01c.02-9.39.58-18.84-.44-28.22-2.4-22.13-13.85-43.16-32.85-55.05-7.44-4.65-17.14-9.82-25.04-13.73-28.7-14.24-61.36-5.02-84.26,15.4C14.42,40.22,1.17,66.69,0,92.14l.04,75.48,19.92,10.86,19.43-2.71v-3.59l5.58,2.76,19.27-2.76v-3.37l5.15,2.64,18.65-2.64v-13.5l19.69,10.66,18.86-2.64v-3.37c1.69.65,3.79,2.56,5.59,2.54,5.94-1.14,12.43-1.36,18.31-2.55.24-.05.4-.09.53-.31v-3.48l5.4,2.89,19.46-2.68c.05-23.16-.06-28.2-.01-51.37ZM124.28,161.22l-14.11,1.9v-56.84c-1.39-16.35-23.37-12.92-24.44,4.21v56.22c-4.42.34-8.79,1.37-13.18,1.87-.24.03-.89.15-.92-.09v-56.94c1.79-33.85,47.83-45.81,52.67-7.59v57.27ZM90.16,68.01c4.52-1.58,9.26-2.8,14.11-2.22,3.18,3.83,5.06,8.39,6.32,13.18l-20.43-10.96ZM133.85,159.75l.13-58.09c.28-17.28-8.21-34.66-25.87-38.01-23.32-4.42-44.77,18.53-45.97,40.73l-.02,65.36-14.93,2.45v-66.34c1.57-25.24,19.65-50.44,44.4-57.18,30.12-8.21,55.01,12.89,57.12,42.86l.29,66.09-15.15,2.14ZM95.21,34.27c7.56-1.23,15.41-1.34,22.85.64l.55.29c.21.16.29.52.47.68,4.08,3.54,8,9.04,10.49,13.85.44.85,1.14,1.94,1.12,2.88-1.34-1-2.73-1.94-4.18-2.78-6.35-3.66-13.41-7.48-19.94-10.83-3.92-2.01-6.86-3.07-11.07-4.31-.31-.09-.37.12-.31-.43ZM158.82,156.16l-.22-6.21c-.69-26.76,1.24-35.95.23-62.66-1.72-45.35-43.53-71.2-83.9-47.71-21.48,12.5-35.81,36.65-37.64,61.43l-.03,72.31-14.93,2.24-.22-9.38c-.27-27.87-.14-35.6.22-63.28.55-42.4,37.69-86.31,81.62-88.25,42.01-1.86,68.54,31.31,69.84,71.17l.02,68.42-14.99,1.93Z"/></svg>